<svg id="Layer_1" enable-background="new 0 0 512 512" height="512" viewBox="0 0 512 512" width="512" xmlns="http://www.w3.org/2000/svg"><g><path d="m504.5 256c0 43.55-11.207 84.49-30.888 120.08-40.299 72.87-116.126 123.35-204.119 128.06-4.461.24-8.962.36-13.493.36-5.968 0-11.896-.21-17.754-.63-43.263-3.05-83.462-17.18-117.793-39.57-68.004-44.33-112.953-121.07-112.953-208.3 0-14.04 1.168-27.81 3.403-41.21 17.934-107.48 104.869-191.61 213.72-205.32 4.521-.57 9.072-1.02 13.662-1.33 5.849-.43 11.757-.64 17.715-.64 106.616 0 197.552 67.15 232.822 161.46 10.139 27.09 15.678 56.42 15.678 87.04z" fill="#00b1ff"/><path d="m504.5 256c0 43.55-11.207 84.49-30.888 120.08-40.299 72.87-116.126 123.35-204.119 128.06-4.461.24-8.962.36-13.493.36-5.968 0-11.896-.21-17.754-.63 126.774-11.23 226.184-117.93 226.184-247.87 0-129.93-99.39-236.61-226.145-247.86 5.849-.43 11.757-.64 17.715-.64 106.616 0 197.552 67.15 232.822 161.46 10.139 27.09 15.678 56.42 15.678 87.04z" fill="#008cff"/><g><g><path d="m300.188 256c0 24.74-20.06 44.8-44.8 44.8-3.61 0-7.12-.43-10.49-1.24-19.68-4.72-34.31-22.43-34.31-43.56 0-21.08 14.56-38.76 34.17-43.53 3.41-.83 6.97-1.27 10.63-1.27 24.74 0 44.8 20.06 44.8 44.8z" fill="#ff2261"/><path d="m300.188 256c0 24.74-20.06 44.8-44.8 44.8-3.61 0-7.12-.43-10.49-1.24 19.62-4.76 34.18-22.44 34.18-43.53 0-21.14-14.63-38.85-34.32-43.56 3.41-.83 6.97-1.27 10.63-1.27 24.74 0 44.8 20.06 44.8 44.8z" fill="#b7305d"/><path d="m273.638 162.82c0 10.08-8.17 18.25-18.25 18.25-3.32 0-6.44-.89-9.12-2.45-5.46-3.15-9.13-9.04-9.13-15.8s3.67-12.65 9.13-15.8c2.68-1.56 5.8-2.45 9.12-2.45 10.08 0 18.25 8.17 18.25 18.25z" fill="#ff2261"/><path d="m273.638 349.21c0 10.08-8.17 18.26-18.25 18.26-3.32 0-6.44-.89-9.12-2.46-5.46-3.14-9.13-9.04-9.13-15.8s3.67-12.65 9.13-15.8c2.68-1.56 5.8-2.45 9.12-2.45 10.08 0 18.25 8.17 18.25 18.25z" fill="#ff2261"/><g fill="#b7305d"><path d="m255.388 144.57c-3.32 0-6.44.89-9.12 2.45 5.45 3.15 9.12 9.05 9.12 15.8v18.25c10.08 0 18.25-8.17 18.25-18.25s-8.17-18.25-18.25-18.25z"/><path d="m255.388 330.96v18.25c0 6.75-3.67 12.65-9.12 15.8 2.68 1.57 5.8 2.46 9.12 2.46 10.08 0 18.25-8.18 18.25-18.26s-8.17-18.25-18.25-18.25z"/><circle cx="347.586" cy="256.017" r="18.252"/></g><circle cx="163.19" cy="256.016" fill="#ff2261" r="18.252"/><circle cx="321.289" cy="190.116" fill="#b7305d" r="18.252"/><circle cx="189.487" cy="321.917" fill="#ff2261" r="18.252"/><circle cx="183.444" cy="184.072" fill="#ff2261" r="28.002"/><circle cx="328.188" cy="327.004" fill="#b7305d" r="28.002"/></g></g><g fill="#99f5d2"><path d="m473.612 376.08c-40.299 72.87-116.126 123.35-204.119 128.06l1.766-5.46 21.377-66.23c5.878-18.12 22.465-28.7 39.58-28.7 8.932 0 18.004 2.88 25.768 9.08 13.423 10.71 32.036 12.05 46.856 3.38l2.485-1.45z"/><path d="m488.821 168.96-34.081 17.98-20.509 10.82c-21.647 11.78-48.622.45-55.369-23.26l-17.126-60.23c-5.15-18.12-22.674-29.84-41.387-27.68l-33.503 3.87c-17.515 2.02-34.171-8.14-40.389-24.64l-21.834-56.35c4.521-.57 9.072-1.02 13.662-1.33 5.849-.43 11.757-.64 17.715-.64 106.615 0 197.552 67.15 232.821 161.46z"/><path d="m131.171 453.11-10.718 11.19c-68.004-44.33-112.953-121.07-112.953-208.3 0-14.04 1.168-27.81 3.403-41.21l55.578 25.06c21.896 9.97 34.061 31.28 34.061 53.04 0 13.09-4.401 26.33-13.722 37.38-5.479 6.48-3.383 16.38 4.241 20.09l22.774 11.07c35.03 17.04 43.723 63.03 17.336 91.68z"/></g><g fill="#69d8e4"><path d="m271.259 498.68-1.766 5.46c87.993-4.71 163.82-55.19 204.119-128.06l-66.287 38.68c-34.321 41.47-81.825 71.59-136.066 83.92z"/><path d="m454.74 186.94 34.081-17.98c-35.269-94.31-126.206-161.46-232.821-161.46-5.958 0-11.866.21-17.714.64 103.381 9.17 188.56 81.83 216.454 178.8z"/></g></g><g><path d="m485.12 141.686c-1.852-3.706-6.356-5.208-10.062-3.355-3.705 1.853-5.207 6.357-3.355 10.063 2.712 5.426 5.208 10.92 7.487 16.478l-48.545 26.303c-8.304 4.52-18.066 5.012-26.781 1.35-8.716-3.661-15.198-10.977-17.783-20.069l-17.126-60.236c-6.188-21.763-26.994-35.681-49.469-33.08l-33.497 3.868c-14.133 1.633-27.496-6.523-32.511-19.83-.013-.034-.026-.068-.039-.103l-18.565-47.166c6.985-.604 14.032-.909 21.126-.909 79.555 0 153.932 39.236 198.958 104.957 2.341 3.417 7.009 4.289 10.426 1.948 3.417-2.342 4.29-7.01 1.948-10.427-47.824-69.804-126.827-111.478-211.332-111.478-68.38 0-132.667 26.629-181.02 74.98s-74.98 112.64-74.98 181.02c0 4.143 3.358 7.5 7.5 7.5s7.5-3.357 7.5-7.5c0-10.273.639-20.448 1.897-30.479l46.473 21.159c14.554 6.626 24.914 19.375 28.423 34.977s-.394 31.559-10.709 43.779c-4.11 4.87-5.711 11.238-4.391 17.473 1.319 6.233 5.362 11.407 11.092 14.193l22.772 11.076c14.542 7.073 24.605 20.242 27.61 36.131 3.005 15.89-1.554 31.825-12.509 43.72l-6.111 6.636c-7.677-5.276-15.075-11.016-22.149-17.204-43.48-38.035-71.885-90.308-79.98-147.188-.584-4.102-4.387-6.967-8.482-6.368-4.101.583-6.952 4.381-6.369 8.481 8.602 60.435 38.772 115.966 84.955 156.364 46.625 40.788 106.459 63.25 168.478 63.25 68.38 0 132.667-26.629 181.019-74.98 48.353-48.352 74.981-112.64 74.981-181.02 0-40.172-9.043-78.633-26.88-114.314zm-352.755 321.203 4.327-4.698c14.199-15.419 20.109-36.073 16.214-56.669-3.895-20.595-16.939-37.664-35.788-46.832l-22.773-11.077c-2.106-1.023-2.77-2.826-2.978-3.811-.208-.983-.332-2.9 1.179-4.69 13.37-15.841 18.429-36.524 13.88-56.747s-17.977-36.747-36.842-45.337l-50.254-22.881c8.986-46.905 31.742-90.045 66.257-124.56 36.791-36.79 83.381-60.221 133.885-67.854l19.99 50.785c7.461 19.726 27.296 31.812 48.248 29.389l33.497-3.868c15.139-1.739 29.152 7.624 33.32 22.281l17.125 60.236c3.838 13.501 13.461 24.361 26.401 29.797 5.744 2.413 11.794 3.611 17.824 3.611 7.554 0 15.076-1.881 21.925-5.607l46.687-25.297c8.313 24.616 12.511 50.379 12.511 76.94 0 40.594-9.969 79.655-28.748 114.389l-67.205 39.348c-12.047 7.053-27.473 5.942-38.383-2.765-12.563-10.023-29.253-13.252-44.646-8.63-15.394 4.62-27.549 16.505-32.515 31.79l-21.684 66.744c-2.6.082-5.206.124-7.819.124-43.836 0-86.512-11.92-123.635-34.111zm294.048-36.476c-39.831 39.831-91.149 64.003-146.484 69.422l19.839-61.068c3.497-10.765 11.72-18.805 22.561-22.059 10.839-3.254 22.132-1.072 30.979 5.988 15.726 12.549 37.956 14.148 55.318 3.985l42.166-24.688c-7.317 9.995-15.455 19.496-24.379 28.42z"/><path d="m281.261 349.215c0-11.588-7.683-21.412-18.215-24.635v-16.82c8.793-1.273 16.885-4.749 23.697-9.85l10.965 10.987c-8.057 13.616-6.249 31.51 5.423 43.206 6.695 6.709 15.599 10.404 25.07 10.404 9.471-.001 18.374-3.695 25.068-10.404 13.812-13.839 13.812-36.357 0-50.196-6.695-6.709-15.598-10.403-25.068-10.404-.001 0 0 0 0 0-7.364 0-14.384 2.234-20.291 6.382l-10.564-10.585c5.109-6.829 8.591-14.945 9.867-23.767h15.748c3.219 10.544 13.028 18.235 24.598 18.235 14.179 0 25.715-11.553 25.715-25.752s-11.536-25.752-25.715-25.752c-11.582 0-21.399 7.707-24.608 18.269h-15.728c-1.267-8.84-4.749-16.973-9.863-23.815l11.847-11.871c3.682 1.973 7.814 3.019 12.108 3.019 6.872 0 13.331-2.681 18.188-7.548 10.017-10.037 10.017-26.37 0-36.407-4.857-4.867-11.317-7.548-18.188-7.548s-13.331 2.681-18.188 7.548c-8.176 8.192-9.678 20.578-4.508 30.312l-11.857 11.881c-6.816-5.109-14.914-8.59-23.716-9.864v-16.788c10.532-3.222 18.215-13.047 18.215-24.635 0-14.199-11.536-25.752-25.715-25.752s-25.715 11.553-25.715 25.752c0 11.587 7.682 21.412 18.214 24.634v16.788c-8.81 1.275-16.915 4.762-23.735 9.878l-10.777-10.798c8.855-13.743 7.282-32.321-4.719-44.346-6.695-6.709-15.599-10.404-25.069-10.404s-18.374 3.695-25.069 10.404c-13.812 13.839-13.812 36.356 0 50.196 6.696 6.709 15.599 10.403 25.069 10.403 6.912 0 13.52-1.968 19.19-5.639l10.781 10.802c-5.106 6.838-8.583 14.964-9.848 23.796h-15.728c-3.209-10.561-13.026-18.269-24.607-18.269-14.179 0-25.715 11.553-25.715 25.752s11.536 25.751 25.715 25.751c11.569 0 21.378-7.69 24.597-18.234h15.748c1.275 8.814 4.752 16.923 9.853 23.748l-11.868 11.892c-3.676-1.965-7.8-3.008-12.085-3.008-6.871 0-13.331 2.681-18.188 7.548-10.017 10.037-10.017 26.37 0 36.407 4.858 4.867 11.317 7.548 18.189 7.548s13.331-2.681 18.188-7.548c8.182-8.198 9.681-20.597 4.497-30.334l11.868-11.892c6.816 5.109 14.914 8.59 23.716 9.864v16.821c-10.532 3.222-18.215 13.047-18.215 24.635 0 14.199 11.536 25.751 25.715 25.751s25.713-11.549 25.713-25.748zm46.939-42.713c5.458.001 10.591 2.131 14.452 6 7.98 7.997 7.98 21.008 0 29.005-3.861 3.869-8.993 5.999-14.452 6-5.458 0-10.591-2.131-14.452-6-7.98-7.997-7.98-21.008 0-29.005 3.861-3.869 8.993-6 14.452-6zm19.359-61.237c5.908 0 10.715 4.823 10.715 10.752s-4.807 10.752-10.715 10.752-10.715-4.823-10.715-10.752 4.807-10.752 10.715-10.752zm-33.815-62.757c2.023-2.027 4.712-3.144 7.571-3.144s5.548 1.116 7.571 3.144c4.186 4.195 4.186 11.021 0 15.216-2.023 2.027-4.712 3.144-7.571 3.144s-5.548-1.116-7.571-3.144c-4.186-4.196-4.186-11.021 0-15.216zm-68.912-19.69c0-5.929 4.807-10.752 10.715-10.752s10.715 4.823 10.715 10.752-4.807 10.752-10.715 10.752-10.715-4.823-10.715-10.752zm10.714 55.884c20.517 0 37.208 16.731 37.208 37.298s-16.691 37.298-37.208 37.298-37.208-16.732-37.208-37.298 16.691-37.298 37.208-37.298zm-86.252-20.127c-7.98-7.997-7.98-21.009 0-29.005 3.861-3.869 8.994-6 14.452-6s10.591 2.131 14.452 6c7.98 7.996 7.98 21.008 0 29.005-3.861 3.868-8.994 5.999-14.452 5.999s-10.591-2.131-14.452-5.999zm-5.761 68.193c-5.908 0-10.715-4.823-10.715-10.751 0-5.929 4.807-10.752 10.715-10.752s10.715 4.823 10.715 10.752c0 5.927-4.807 10.751-10.715 10.751zm33.816 62.757c-2.023 2.027-4.712 3.144-7.571 3.144s-5.548-1.116-7.572-3.144c-4.186-4.195-4.186-11.021 0-15.216 2.023-2.027 4.712-3.144 7.572-3.144 2.859 0 5.547 1.116 7.571 3.144 4.186 4.196 4.186 11.021 0 15.216zm58.197 30.441c-5.908 0-10.715-4.823-10.715-10.751 0-5.929 4.807-10.752 10.715-10.752s10.715 4.823 10.715 10.752c0 5.928-4.807 10.751-10.715 10.751z"/><path d="m238.396 245.609c.18.45.42.881.69 1.29.27.41.58.79.93 1.141.34.34.73.66 1.14.93.4.271.84.5 1.29.69.45.189.93.33 1.41.43s.97.14 1.46.14.98-.04 1.47-.14c.48-.1.95-.24 1.4-.43s.89-.42 1.29-.69c.42-.27.8-.59 1.14-.93.35-.351.66-.73.94-1.141.27-.409.5-.84.69-1.29.19-.46.33-.93.43-1.409.09-.48.14-.971.14-1.46 0-1.98-.8-3.91-2.2-5.311-.34-.34-.72-.66-1.14-.93-.4-.271-.84-.5-1.29-.69-.45-.189-.92-.33-1.4-.43-.97-.19-1.97-.19-2.93 0-.48.1-.96.24-1.41.43s-.89.42-1.29.69c-.41.27-.8.59-1.14.93-1.4 1.4-2.2 3.33-2.2 5.311 0 .489.05.979.15 1.46.099.48.24.949.43 1.409z"/><path d="m249.565 263.12c-.48.09-.95.239-1.4.43-.46.18-.89.42-1.3.68-.41.28-.79.59-1.14.94-.35.34-.66.729-.93 1.14-.27.4-.5.84-.69 1.29-.19.46-.33.93-.43 1.41s-.15.97-.15 1.46c0 1.98.8 3.91 2.2 5.3.35.351.73.66 1.14.94.41.27.84.5 1.3.689.45.181.92.33 1.4.42.48.101.98.15 1.47.15.48 0 .98-.05 1.46-.15.48-.09.95-.239 1.4-.42.46-.189.89-.42 1.3-.689.41-.28.79-.59 1.14-.94 1.39-1.39 2.19-3.319 2.19-5.3 0-.49-.04-.979-.14-1.46-.1-.48-.24-.95-.43-1.41-.19-.45-.42-.89-.69-1.29-.27-.41-.59-.8-.93-1.14-1.75-1.75-4.339-2.55-6.77-2.05z"/><path d="m267.235 260.67c.41.27.85.5 1.3.689.45.181.92.33 1.4.42.48.101.98.15 1.47.15s.98-.05 1.46-.15c.48-.09.95-.239 1.41-.42.45-.189.88-.42 1.29-.689.41-.271.79-.59 1.14-.93 1.4-1.4 2.2-3.33 2.2-5.311 0-.49-.05-.979-.15-1.46-.09-.479-.24-.95-.43-1.41-.18-.45-.42-.88-.69-1.29s-.58-.8-.93-1.14c-.35-.351-.73-.66-1.14-.94-.41-.26-.84-.5-1.29-.68-.46-.19-.93-.34-1.41-.43-.97-.2-1.96-.2-2.93 0-.48.09-.95.239-1.4.43-.45.18-.89.42-1.3.68-.41.28-.79.59-1.14.94-.34.34-.66.729-.93 1.14s-.5.84-.69 1.29c-.19.46-.33.931-.43 1.41-.09.48-.14.97-.14 1.46 0 1.98.8 3.91 2.19 5.311.35.34.73.659 1.14.93z"/></g></svg>